<svg id="Ebene_2" xmlns="http://www.w3.org/2000/svg" viewBox="0 0 98.46 167.19" class="text-slate-900 dark:text-white w-5 h-7">
  <style>
    path {
      fill: #000;
    }

    @media (prefers-color-scheme: dark) {
      path {
        fill: #fff;
      }
    }
  </style>
  <g id="Ebene_1-2">
    <path d="M9.7,19.4C4.35,19.4,0,15.05,0,9.7S4.35,0,9.7,0s9.7,4.35,9.7,9.7-4.35,9.7-9.7,9.7Z" style="stroke-width:0;" />
    <path
      d="M50.2,115.45c-14.86,0-27.53-10.54-30.12-25.06-.32-1.78-.48-3.56-.48-5.32v-34.91h0c0-8.12-6.58-14.7-14.7-14.7H0v50c.02,1.4.09,2.8.21,4.18,1.13,12.29,6.84,23.69,16.06,32.1,9.29,8.46,21.34,13.12,33.92,13.12,7.16,0,14.06-1.47,20.53-4.36v-22.91c-5.55,5.01-12.82,7.86-20.53,7.86Z"
      style="stroke-width:0;" />
    <path
      d="M98.28,80.89c-1.04-12.38-6.71-23.87-15.96-32.36-9.31-8.54-21.4-13.25-34.06-13.25-7.87,0-15.54,1.84-22.5,5.32,1.34,2.91,2.1,6.15,2.1,9.57v12.27c5.54-4.94,12.75-7.74,20.4-7.74,15.1,0,27.79,10.73,30.2,25.51.26,1.62.4,3.26.4,4.87v59.87h0v7.55c0,8.12,6.58,14.7,14.7,14.7h4.9v-82.12c0-1.36-.06-2.77-.18-4.18Z" style="stroke-width:0;" />
  </g>
</svg>
